<svg xmlns="http://www.w3.org/2000/svg" xmlns:xlink="http://www.w3.org/1999/xlink" viewBox="0 0 512 512"><defs><path id="a" d="M0 0h512v512H0z"/><path id="c" d="M0 0h125.8v97.9H0z"/></defs><mask id="b" fill="#fff"><use xlink:href="#a"/></mask><use fill="#0F1035" xlink:href="#a"/><g mask="url(#b)"><path fill="#FFF" fill-rule="nonzero" d="M115.3 246h17.6c1.8 0 3-1.3 3-3v-70.8h20.4c1.7 0 3-1.2 3-3V154c0-1.8-1.3-3-3-3H92c-1.8 0-3 1.2-3 3v15.2c0 1.8 1.2 3 3 3h20.3V243c0 1.8 1.2 3 3 3m70 0h57c1.8 0 3-1.2 3-3v-14.3c0-1.8-1.2-3-3-3H205V208h30.2c1.8 0 3-1.2 3-3v-14.3c0-1.8-1.2-3-3-3H205v-16.4h36.8c1.7 0 3-1.2 3-3V154c0-1.8-1.3-3-3-3h-56.5c-1.8 0-3 1.2-3 3v89c0 1.7 1.2 3 3 3m87.8 0h53c1.7 0 3-1.3 3-3v-15.6c0-1.8-1.3-3-3-3h-32.3V154c0-1.8-1.2-3-3-3H273c-1.8 0-3 1.2-3 3v89c0 1.7 1.2 3 3 3m83.8 0h56.7c1.8 0 3-1.3 3-3v-14.4c0-1.8-1.2-3-3-3h-37V208h29.9c1.8 0 3-1.2 3-3v-14.3c0-1.8-1.2-3-3-3h-30v-16.4H413c1.8 0 3-1.2 3-3V154c0-1.8-1.2-3-3-3h-56.2c-1.8 0-3 1.2-3 3v89c0 1.7 1.2 3 3 3"/><path fill="#FF142D" fill-rule="nonzero" d="M357.2 358.6H414c1.8 0 3-1.2 3-3v-14.4c0-1.7-1.2-3-3-3h-37v-17.6h29.8c1.8 0 3-1.1 3-3v-14.3c0-1.8-1.2-3-3-3H377V284h36.5c1.8 0 3-1.2 3-3v-14.3c0-1.8-1.2-3-3-3h-56.2c-1.8 0-3 1.2-3 3v89c0 1.8 1.2 3 3 3m-107.9 0h16.4c1.8 0 3-1.2 3-3V308l50 48.7a5.5 5.5 0 004.4 1.8h3.6c1.8 0 3-1.2 3-3v-89c0-1.8-1.2-3-3-3h-16.4c-1.8 0-3 1.2-3 3v47.8l-48.7-49a5.5 5.5 0 00-4.5-1.8h-4.8c-1.8 0-3 1.2-3 3v89c0 2 1.2 3 3 3"/><g transform="translate(95.7 262.1)"><mask id="d" fill="#fff"><use xlink:href="#c"/></mask><path fill="#FF142D" fill-rule="nonzero" d="M105.2 96.4H123c1.7 0 3-1.2 3-3v-89c0-1.7-1.3-3-3-3h-17.7c-1.8 0-3 1.3-3 3v89c0 1.8 1.2 3 3 3m-57 1.5c13.7 0 26.2-6.6 34.3-14.3 1.5-1.5 2-3 0-4.8l-9.9-10.1c-1.2-1.2-2.7-1.2-4.2.2-6.2 5.1-12.2 7.5-19.4 7.5-14.6 0-25.7-10.7-25.7-27.7 0-17.4 11.4-27.2 25.7-27.2 6.6 0 12 1.8 18.3 6.9 1.4 1.1 2.6 1.1 4.1-.3l9.6-9.9c1.5-1.5 1.8-3 0-4.8A47.5 47.5 0 0048.7 0 48.4 48.4 0 000 49c0 28.9 20 48.9 48.1 48.9" mask="url(#d)"/></g></g></svg>
